<mxfile host="app.diagrams.net" modified="2022-12-09T16:53:11.812Z" agent="5.0 (Macintosh)" etag="AQyoQ53uLchr4Msnc8X5" version="20.6.0" type="github">
  <diagram id="C5RBs43oDa-KdzZeNtuy" name="Page-1">
    <mxGraphModel dx="885" dy="553" grid="1" gridSize="10" guides="1" tooltips="1" connect="1" arrows="1" fold="1" page="1" pageScale="1" pageWidth="827" pageHeight="1169" math="0" shadow="0">
      <root>
        <mxCell id="WIyWlLk6GJQsqaUBKTNV-0" />
        <mxCell id="WIyWlLk6GJQsqaUBKTNV-1" parent="WIyWlLk6GJQsqaUBKTNV-0" />
        <mxCell id="G_-l20AmU7ngw_Rv8lPp-2" style="edgeStyle=orthogonalEdgeStyle;rounded=0;orthogonalLoop=1;jettySize=auto;html=1;entryX=0;entryY=0.5;entryDx=0;entryDy=0;" edge="1" parent="WIyWlLk6GJQsqaUBKTNV-1" source="G_-l20AmU7ngw_Rv8lPp-0" target="G_-l20AmU7ngw_Rv8lPp-1">
          <mxGeometry relative="1" as="geometry" />
        </mxCell>
        <mxCell id="G_-l20AmU7ngw_Rv8lPp-0" value="Selecci칩n del tema de estudio" style="shape=process;whiteSpace=wrap;html=1;backgroundOutline=1;fillColor=#fad7ac;strokeColor=#b46504;" vertex="1" parent="WIyWlLk6GJQsqaUBKTNV-1">
          <mxGeometry x="120" y="180" width="120" height="60" as="geometry" />
        </mxCell>
        <mxCell id="G_-l20AmU7ngw_Rv8lPp-8" style="edgeStyle=orthogonalEdgeStyle;rounded=0;orthogonalLoop=1;jettySize=auto;html=1;" edge="1" parent="WIyWlLk6GJQsqaUBKTNV-1" source="G_-l20AmU7ngw_Rv8lPp-1" target="G_-l20AmU7ngw_Rv8lPp-3">
          <mxGeometry relative="1" as="geometry" />
        </mxCell>
        <mxCell id="G_-l20AmU7ngw_Rv8lPp-1" value="Obtenci칩n y preprocesamiento de datos" style="shape=process;whiteSpace=wrap;html=1;backgroundOutline=1;fillColor=#fad7ac;strokeColor=#b46504;" vertex="1" parent="WIyWlLk6GJQsqaUBKTNV-1">
          <mxGeometry x="270" y="180" width="130" height="60" as="geometry" />
        </mxCell>
        <mxCell id="G_-l20AmU7ngw_Rv8lPp-9" style="edgeStyle=orthogonalEdgeStyle;rounded=0;orthogonalLoop=1;jettySize=auto;html=1;entryX=0;entryY=0.5;entryDx=0;entryDy=0;" edge="1" parent="WIyWlLk6GJQsqaUBKTNV-1" source="G_-l20AmU7ngw_Rv8lPp-3" target="G_-l20AmU7ngw_Rv8lPp-4">
          <mxGeometry relative="1" as="geometry" />
        </mxCell>
        <mxCell id="G_-l20AmU7ngw_Rv8lPp-3" value="Dise침o de experimentos" style="shape=process;whiteSpace=wrap;html=1;backgroundOutline=1;fillColor=#fad7ac;strokeColor=#b46504;" vertex="1" parent="WIyWlLk6GJQsqaUBKTNV-1">
          <mxGeometry x="430" y="180" width="120" height="60" as="geometry" />
        </mxCell>
        <mxCell id="G_-l20AmU7ngw_Rv8lPp-10" style="edgeStyle=orthogonalEdgeStyle;rounded=0;orthogonalLoop=1;jettySize=auto;html=1;" edge="1" parent="WIyWlLk6GJQsqaUBKTNV-1" source="G_-l20AmU7ngw_Rv8lPp-4" target="G_-l20AmU7ngw_Rv8lPp-5">
          <mxGeometry relative="1" as="geometry" />
        </mxCell>
        <mxCell id="G_-l20AmU7ngw_Rv8lPp-4" value="Experimentos y resultados" style="shape=process;whiteSpace=wrap;html=1;backgroundOutline=1;fillColor=#fad7ac;strokeColor=#b46504;" vertex="1" parent="WIyWlLk6GJQsqaUBKTNV-1">
          <mxGeometry x="580" y="180" width="120" height="60" as="geometry" />
        </mxCell>
        <mxCell id="G_-l20AmU7ngw_Rv8lPp-5" value="Aplicaci칩n del conocimiento" style="shape=process;whiteSpace=wrap;html=1;backgroundOutline=1;fillColor=#fad7ac;strokeColor=#b46504;" vertex="1" parent="WIyWlLk6GJQsqaUBKTNV-1">
          <mxGeometry x="730" y="180" width="120" height="60" as="geometry" />
        </mxCell>
        <mxCell id="G_-l20AmU7ngw_Rv8lPp-11" value="Etapa 1" style="text;html=1;strokeColor=none;fillColor=none;align=center;verticalAlign=middle;whiteSpace=wrap;rounded=0;" vertex="1" parent="WIyWlLk6GJQsqaUBKTNV-1">
          <mxGeometry x="150" y="150" width="60" height="30" as="geometry" />
        </mxCell>
        <mxCell id="G_-l20AmU7ngw_Rv8lPp-12" value="Etapa 2" style="text;html=1;strokeColor=none;fillColor=none;align=center;verticalAlign=middle;whiteSpace=wrap;rounded=0;" vertex="1" parent="WIyWlLk6GJQsqaUBKTNV-1">
          <mxGeometry x="305" y="150" width="60" height="30" as="geometry" />
        </mxCell>
        <mxCell id="G_-l20AmU7ngw_Rv8lPp-13" value="&lt;div&gt;Etapa 3&lt;/div&gt;" style="text;html=1;strokeColor=none;fillColor=none;align=center;verticalAlign=middle;whiteSpace=wrap;rounded=0;" vertex="1" parent="WIyWlLk6GJQsqaUBKTNV-1">
          <mxGeometry x="460" y="150" width="60" height="30" as="geometry" />
        </mxCell>
        <mxCell id="G_-l20AmU7ngw_Rv8lPp-14" value="&lt;div&gt;Etapa 4&lt;/div&gt;" style="text;html=1;strokeColor=none;fillColor=none;align=center;verticalAlign=middle;whiteSpace=wrap;rounded=0;" vertex="1" parent="WIyWlLk6GJQsqaUBKTNV-1">
          <mxGeometry x="610" y="150" width="60" height="30" as="geometry" />
        </mxCell>
        <mxCell id="G_-l20AmU7ngw_Rv8lPp-15" value="&lt;div&gt;Etapa 5&lt;br&gt;&lt;/div&gt;" style="text;html=1;strokeColor=none;fillColor=none;align=center;verticalAlign=middle;whiteSpace=wrap;rounded=0;" vertex="1" parent="WIyWlLk6GJQsqaUBKTNV-1">
          <mxGeometry x="760" y="150" width="60" height="30" as="geometry" />
        </mxCell>
      </root>
    </mxGraphModel>
  </diagram>
</mxfile>
